<?xml version="1.0" encoding="UTF-8"?>
<!DOCTYPE svg PUBLIC "-//W3C//DTD SVG 1.1//EN" "http://www.w3.org/Graphics/SVG/1.1/DTD/svg11.dtd">
<!-- Creator: CorelDRAW 2020 (64-Bit) -->
<svg xmlns="http://www.w3.org/2000/svg" xml:space="preserve" width="50mm" height="50mm" version="1.1" style="shape-rendering:geometricPrecision; text-rendering:geometricPrecision; image-rendering:optimizeQuality; fill-rule:evenodd; clip-rule:evenodd"
viewBox="0 0 5000 5000"
 xmlns:xlink="http://www.w3.org/1999/xlink"
 xmlns:xodm="http://www.corel.com/coreldraw/odm/2003">
 <defs>
  <style type="text/css">
   <![CDATA[
    .str1 {stroke:red;stroke-width:20;stroke-miterlimit:22.9256}
    .str0 {stroke:white;stroke-width:20;stroke-miterlimit:22.9256}
    .fil0 {fill:#0095FE}
    .fil3 {fill:red}
    .fil1 {fill:white}
    .fil2 {fill:red;fill-rule:nonzero}
    .fil4 {fill:white;fill-rule:nonzero}
   ]]>
  </style>
 </defs>
 <g id="Слой_x0020_1">
  <metadata id="CorelCorpID_0Corel-Layer"/>
  <g id="_1389017318224">
   <g>
    <path class="fil0" d="M3614.13 3907.18l825.07 0c-3.87,-65.03 -15.8,-145.28 -32.23,-225.17 -20.51,-99.73 -47.88,-197.91 -75.24,-264.42 -24.48,-59.51 -77.16,-183.71 -130.11,-284.87 -24.26,-46.36 -48.2,-87.43 -68.6,-113.78 -29.66,12.06 -67.94,31.12 -112.27,53.49l274.1 550.49c18.72,39.78 14.03,86.55 -11.69,121.64 -28.07,37.41 -72.51,53.79 -116.96,44.44l-568.58 -113.22c2.89,37.53 5.46,75.13 8.1,113.52 2.57,37.57 5.21,75.98 8.41,117.88zm-540.29 -335.71l-280.71 427c0,0 601.91,0 601.91,0 -3.7,-89.42 -18.86,-338.32 -31.78,-459.59 -12.14,-114.04 -27.88,-216.44 -45.8,-259.02l-10.38 -24.64 -26.52 -3c-26.31,-2.97 -171.52,22.86 -254.92,37.69l-47.94 8.49c-38.35,6.42 -93.47,12.66 -150.1,17.59 -61.01,5.32 -121.26,9 -162.74,9.74l-44.93 0.81 0 456.92c30.57,0.7 61.04,1.67 91.29,3.11l0 -371.35c38.38,-1.7 81.94,-4.61 124.23,-8.29 57.55,-5.01 115.06,-11.6 157.23,-18.66 15.49,-2.59 30.29,-5.23 48.64,-8.49 60.21,-10.71 154.54,-27.48 201.56,-34.17 102.18,428.33 43.18,268.12 -169.04,225.86zm-778.55 427l-264.68 -427 -147.97 -13.68c9.11,-86.82 -33.98,-155.28 -20.92,-211.35 18.86,2.89 45.42,7.15 76.73,12.18 123.17,19.79 315.45,50.68 454.87,56.92l0 369.7c30.27,-1.17 60.71,-1.99 91.3,-2.44l0 -457.02 -45.65 -0.05c-132.46,-0.13 -351.5,-35.32 -486.25,-56.97 -66.78,-10.73 -114.1,-18.33 -128.27,-17.23l-30.36 2.4 -9.4 29.17c-19.24,59.66 -35.24,165.33 -47.11,278.33 -11.56,110.13 -26.56,348.76 -29.71,437.04 0,0 143.71,0 143.71,0l443.71 0zm-1722.2 0l-0.02 -45.65c-0.03,-151.73 40.84,-348.74 105.02,-536.33 63.4,-185.31 150.12,-363.18 243.27,-481.13l21.29 -26.94 31.66 13.04c52.49,21.63 103.17,47.74 154.58,74.22 51.86,26.71 104.52,53.85 157.53,75.64 27.87,11.46 80.65,29.25 136.14,47.95 85.03,28.63 176.27,59.37 207.01,77.64l19.7 11.72 2.41 22.87c3.3,31.56 -19.69,180.87 -35.22,281.68 -5.97,38.83 -10.9,70.79 -12.07,79.5 -9.48,70.93 -17.32,166.09 -24.56,254.05 -1.74,21.2 -10.61,125.31 -12.94,151.74 0,0 -879.62,0 -993.8,0zm3041.04 -91.29l825.07 0c-3.87,-65.03 -15.8,-145.28 -32.23,-225.17 -20.51,-99.73 -47.88,-197.91 -75.24,-264.42 -24.48,-59.51 -77.16,-183.71 -130.11,-284.87 -24.26,-46.36 -48.2,-87.43 -68.6,-113.78 -32.68,13.29 -75.84,35.08 -126.02,60.43 -120.21,60.69 -278.77,140.76 -448.66,183.06 -18.59,4.63 -15.43,17.16 -9.87,39.22 3.72,14.76 7.91,31.33 11.27,51.27 27.02,160.3 36.12,292.67 45.98,436.38 2.57,37.57 5.21,75.98 8.41,117.88zm871.87 91.29c45.65,0 -959.25,0 -959.25,0 -3.27,-42.53 -9.09,-161.14 -11.96,-203.12 -9.71,-141.45 -18.67,-271.74 -44.91,-427.45 -2.62,-15.53 -6.44,-30.66 -9.84,-44.14 -19.81,-78.47 -31.02,-122.99 76.54,-149.76 159.75,-39.78 313.14,-117.23 429.41,-175.94 69.37,-35.03 126.18,-63.72 167.35,-75.99l24.82 -7.39 19.05 17.55c31.76,29.27 68.95,89.54 105,158.41 54.95,105.01 108.74,231.76 133.68,292.36 29.47,71.65 58.64,175.85 80.22,280.83 20.93,101.77 34.93,205.35 35.36,281.81l0.18 0.19 0 52.64 -45.65 0zm-2249.26 -1800.19c-65.96,134.34 -125.98,276.51 -178.37,420.75 -50.79,139.81 -94.59,281.76 -129.91,420.67l222.77 36.71c47.6,6.89 98.44,12.78 150.19,16.84 30.51,2.38 61.31,4.12 91.9,5.01l0 -915.58 -156.58 15.6zm-263.95 389.73c56.83,-156.48 121.98,-309.76 193.41,-452.82l11.2 -22.45 307.22 -30.61 0 1108.1 -45.65 0c-47.07,0 -95.97,-2.22 -144.68,-6.04 -52.84,-4.15 -105.72,-10.31 -155.9,-17.59 -105.2,-20.43 -215.33,-35.53 -321.67,-53.03l11.5 -47.66c38.03,-157.49 86.93,-319.25 144.57,-477.9zm738.27 510.28c147.98,-4.15 273.46,-27.55 368.79,-45.33 35.76,-6.68 67.49,-12.6 95.38,-16.59 -35.25,-138.16 -78.88,-279.27 -129.43,-418.04 -52.52,-144.14 -112.51,-285.67 -178.3,-418.56l-156.05 -19.44 -0.39 917.96zm385.2 44.17c-109.06,20.35 -256.07,47.77 -430.68,47.77l-45.5 0 0.47 -1103.48 77.85 0 228.58 28.49 10.96 21.77c71.63,142.25 136.77,294.74 193.44,450.3 57.81,158.69 106.83,320.77 144.93,478.6l13.27 54.98 -56.6 1.19c-30.96,0.64 -78.1,9.44 -136.72,20.38zm384.2 -184.18c67.49,-21.57 191.48,-67.68 300.11,-113.09 66.69,-27.88 125.99,-54.26 158.8,-72 -66.51,-81.1 -190.01,-181 -324.23,-270.88 -123.42,-82.66 -254.64,-155.97 -358.18,-197.91l112.01 286.72c11.76,35.63 14.87,44.77 18.52,55.6 31.83,94.36 72.47,214.87 92.97,311.56zm335.06 -28.93c-146.03,61.04 -323.15,124.04 -363.57,130.89l-46.09 7.82 -6.5 -46.51c-13.15,-93.91 -61.65,-237.68 -98.17,-345.95l-18.85 -55.83 -177.32 -453.93 84.9 20.55c118.84,28.74 305.77,126.4 475.86,240.33 162.63,108.91 312,234.14 374.94,330.34l17 25.97 -18.06 25.37c-20.29,28.52 -115.38,75.49 -224.14,120.95zm-2649.69 -155.9c32.73,17.56 91.18,43.52 156.95,71.01 109.31,45.7 234.47,92.26 301.86,113.89 12.98,-57.68 35.44,-136.15 60.92,-217.4 41.14,-131.19 90.34,-270.69 120.01,-341.31 4.44,-10.6 14,-31.49 24.23,-53.89 5.83,-12.76 11.95,-26.14 17.86,-39.41 -40.94,16.82 -86.55,37.85 -131.89,60.46 -88.17,43.97 -174.03,93.33 -221.83,129.07l-1.7 1.27c-86.13,64.43 -248.77,186.06 -326.41,276.31zm121.99 155.17c-108.3,-45.27 -202.79,-91.92 -222.93,-120.22l-18.06 -25.37 16.99 -25.97c68.42,-104.58 272.19,-256.97 373.87,-333.02l1.69 -1.26c52,-38.9 143.17,-91.47 235.74,-137.64 87.51,-43.64 177.52,-82.11 238.43,-98.58l73.8 -19.95 -17.82 74.51c-8.85,37.02 -34.84,93.9 -57.01,142.43 -7.78,17.05 -14.99,32.81 -22.8,51.39 -29.04,69.12 -77.07,205.27 -117.16,333.11 -32.91,104.91 -60.39,203.56 -67.38,253.5l-6.52 46.51 -46.07 -7.82c-39.24,-6.64 -217.97,-70.28 -364.77,-131.62zm2227.24 1263.77l2.5 -42.85 995.63 0 0 45.88c0,134.98 -35.63,314.03 -91.11,487.63 -217.43,-210.18 -532.16,-381.09 -907.02,-490.66zm-2917.04 164.96c-7.45,-49.44 -12.74,-98.13 -12.74,-132.2l0 -75.61 995.47 0 2.43 38.97c-374.24,107.54 -689.34,276.07 -908.89,483.79 -17.85,-55.88 -33.09,-109.43 -45.44,-157.48 -9.97,-38.8 -22.11,-99.62 -30.83,-157.47zm2754.41 -207.81l31.45 0 -0.35 7.54c-10.34,-2.54 -20.68,-5.09 -31.1,-7.54zm-1635.78 3.88l0 -3.88 15.99 0c-5.36,1.26 -10.66,2.6 -15.99,3.88z"/>
   </g>
   <path class="fil1 str0" d="M4232.29 3654.08l-1637.41 -3288.4 0.22 -0.11c-3.31,-6.53 -9.02,-11.58 -15.9,-15.02 -7.56,-3.78 -16.97,-5.69 -26.98,-5.69 -10.03,0 -19.43,1.9 -26.99,5.68 -6.88,3.44 -12.61,8.49 -15.91,15.03l0.22 0.11 -1637.37 3288.41c-3.51,7.91 -4.79,16.45 -4,24.72 0.83,8.63 4.01,17.12 9.4,24.47 5.61,7.43 12.67,12.68 20.33,15.59 7.98,3.03 16.98,3.71 26.1,1.79l0.83 -0.27 1062.91 -211.67 564.49 -901.14 564.46 901.14 1062.9 211.67 0.82 0.27c9.13,1.92 18.13,1.24 26.11,-1.79 7.67,-2.91 14.73,-8.17 20.4,-15.53 5.32,-7.42 8.51,-15.92 9.34,-24.52 0.79,-8.28 -0.49,-16.82 -3.97,-24.74z"/>
   <path class="fil2" d="M4232.29 3654.08l-1637.41 -3288.4 0.22 -0.11c-3.31,-6.53 -9.02,-11.58 -15.9,-15.02 -7.56,-3.78 -16.97,-5.69 -26.98,-5.69 -10.03,0 -19.43,1.9 -26.99,5.68 -6.88,3.44 -12.61,8.49 -15.91,15.03l0.22 0.11 -1637.37 3288.41c-3.51,7.91 -4.79,16.45 -4,24.72 0.82,8.63 4.01,17.12 9.4,24.47 5.61,7.43 12.67,12.68 20.33,15.59 7.98,3.03 16.98,3.71 26.1,1.79l0.83 -0.27 1062.91 -211.67 564.49 -901.14 564.46 901.14 1062.9 211.67 0.82 0.27c9.13,1.92 18.13,1.24 26.11,-1.79 7.67,-2.91 14.73,-8.17 20.4,-15.53 5.32,-7.42 8.51,-15.92 9.34,-24.52 0.79,-8.28 -0.49,-16.82 -3.97,-24.74zm-1512.22 -3350.73l1637.38 3288.41 0.55 1.37c14.77,31.37 20.31,65.54 17.12,98.8 -3.24,33.55 -15.29,66.12 -35.66,93.91l-0.55 0.55c-22.13,29.53 -50.98,50.92 -83.19,63.15 -32.25,12.25 -67.64,15.21 -102.89,7.97l-0.02 0.11 -1121.84 -223.4 -478.75 -764.31 -478.77 764.31 -1121.84 223.4 -0.02 -0.11c-35.25,7.24 -70.65,4.28 -102.89,-7.97 -32.22,-12.24 -61.05,-33.63 -83.2,-63.15l-0.54 -0.55c-20.39,-27.8 -32.44,-60.36 -35.65,-93.92 -3.19,-33.25 2.35,-67.42 17.12,-98.79l0.54 -1.37 1637.37 -3288.41 0.27 0c17.67,-35.31 45.61,-61.14 78.29,-77.47 27.98,-13.99 58.97,-20.99 89.32,-20.99 30.35,0 61.34,7.01 89.31,21 32.68,16.33 60.61,42.15 78.28,77.46l0.26 0z"/>
   <path class="fil2" d="M4020.75 3072.43l-40.6 -81.53 -14.16 7.16c-116.28,58.7 -269.66,136.16 -429.41,175.94 -107.56,26.77 -96.35,71.29 -76.53,149.76 3.39,13.48 7.21,28.61 9.83,44.14 17.56,104.19 27.38,196.99 34.86,289.38l92.89 18.5c-7.91,-102.92 -18.09,-205.39 -37.89,-322.85 -3.36,-19.95 -7.55,-36.53 -11.26,-51.29 -5.57,-22.05 -8.72,-34.58 9.86,-39.21 169.89,-42.3 328.45,-122.37 448.66,-183.06l13.75 -6.94zm-95.6 -192l-40.16 -80.64c-29.9,13.72 -65.93,29.32 -104.43,45.41 -108.62,45.4 -232.61,91.51 -300.1,113.08 -20.5,-96.69 -61.14,-217.2 -92.97,-311.57 -3.65,-10.82 -6.76,-19.97 -18.52,-55.59l-112.01 -286.71c103.54,41.92 234.76,115.25 358.18,197.9 69.37,46.46 135.89,95.59 193.15,143.42l-91.7 -184.14c-16.73,-11.77 -33.69,-23.42 -50.81,-34.88 -170.09,-113.92 -357.02,-211.58 -475.85,-240.33l-84.91 -20.54 177.32 453.93 18.85 55.83c36.51,108.26 85.02,252.04 98.17,345.95l6.5 46.51 46.09 -7.82c40.42,-6.85 217.54,-69.85 363.57,-130.89 39.28,-16.42 76.79,-33.04 109.63,-48.92zm-2537.25 -418.99l-95.55 191.89c71.1,-59.86 148.9,-118.05 199.89,-156.19l1.7 -1.27c47.79,-35.73 133.66,-85.1 221.82,-129.07 45.35,-22.61 90.95,-43.64 131.9,-60.46 -5.92,13.27 -12.04,26.65 -17.86,39.41 -10.23,22.4 -19.78,43.29 -24.23,53.89 -29.68,70.62 -78.88,210.12 -120.01,341.31 -25.48,81.25 -47.95,159.72 -60.92,217.4 -67.39,-21.63 -192.55,-68.19 -301.86,-113.89 -38.06,-15.9 -73.67,-31.3 -103.26,-44.85l-40.17 80.65c32.52,15.69 69.61,32.11 108.48,48.36 146.79,61.35 325.52,124.98 364.76,131.62l46.07 7.82 6.52 -46.51c6.99,-49.94 34.47,-148.59 67.38,-253.5 40.09,-127.84 88.12,-263.99 117.16,-333.11 7.81,-18.59 15.02,-34.34 22.8,-51.39 22.17,-48.53 48.16,-105.41 57.01,-142.43l17.82 -74.51 -73.81 19.95c-60.9,16.47 -150.91,54.94 -238.42,98.58 -92.58,46.17 -183.73,98.74 -235.73,137.63l-1.7 1.27c-14.7,10.99 -31.54,23.59 -49.79,37.4zm-264.59 531.37l-40.59 81.53 4.46 2.29c53.18,27.4 107.21,55.23 164.65,78.85 30.76,12.64 84.91,30.9 141.86,50.08 62.78,21.16 129.14,43.51 166.14,58.82 -4.88,48.93 -21.56,157.25 -33.57,235.25 -4.99,32.36 -9.15,59.32 -12.08,81.28 -4.01,30.01 -7.61,62.29 -10.94,95.58l93.49 -18.62c2.44,-23.19 4.99,-45.16 7.67,-65.19 1.16,-8.71 6.08,-40.67 12.07,-79.5 15.52,-100.81 38.51,-250.12 35.21,-281.68l-2.41 -22.87 -19.71 -11.72c-30.74,-18.27 -121.98,-49 -206.99,-77.65 -55.5,-18.69 -108.28,-36.48 -136.16,-47.94 -53,-21.8 -105.66,-48.93 -157.52,-75.63l-5.58 -2.88zm607.52 638.36l93.14 -18.55c1.33,-14.06 2.73,-28.06 4.18,-41.93 9.12,-86.83 20.51,-168.18 33.57,-224.25 18.86,2.89 45.42,7.16 76.74,12.18 57.63,9.26 130.39,20.95 205.79,31.4l53.01 -84.64c-88.34,-11.53 -177.02,-25.78 -244.54,-36.62 -66.77,-10.73 -114.09,-18.33 -128.27,-17.22l-30.36 2.39 -9.4 29.17c-19.24,59.66 -35.23,165.33 -47.11,278.32 -2.41,23.03 -4.67,46.4 -6.75,69.75zm543.4 -448.65l54.69 -87.31c-9.19,-0.59 -18.36,-1.25 -27.51,-1.96 -51.74,-4.06 -102.59,-9.94 -150.18,-16.84l-222.77 -36.71c35.32,-138.91 79.12,-280.87 129.91,-420.68 52.38,-144.23 112.41,-286.4 178.37,-420.74l156.58 -15.59 0 809.72 91.3 -145.76 0 -764.52 -307.22 30.61 -11.2 22.45c-71.43,143.07 -136.58,296.34 -193.42,452.82 -57.63,158.65 -106.53,320.41 -144.56,477.9l-11.5 47.66c106.34,17.5 216.47,32.59 321.66,53.03 43.84,6.36 89.73,11.86 135.85,15.92zm345.99 -335.2l90.88 145.09 0.35 -812.08 156.05 19.44c65.79,132.89 125.78,274.42 178.3,418.56 50.55,138.77 94.18,279.88 129.43,418.04 -27.89,3.99 -59.62,9.92 -95.38,16.58 -81.16,15.15 -184.17,34.35 -304.32,42.3l54.59 87.16c103.57,-9.63 193.32,-26.36 266.14,-39.95 58.62,-10.93 105.76,-19.73 136.72,-20.38l56.6 -1.19 -13.27 -54.98c-38.1,-157.82 -87.12,-319.91 -144.93,-478.6 -56.67,-155.56 -121.81,-308.05 -193.44,-450.3l-10.96 -21.77 -228.58 -28.49 -77.86 0 -0.32 760.57zm288.48 460.53l53.3 85.1c10.89,-1.52 21.17,-3.09 30.67,-4.68 15.5,-2.59 30.3,-5.23 48.65,-8.49 60.22,-10.71 154.53,-27.48 201.57,-34.16 10.68,44.81 20.95,119.82 29.8,202.89 2.23,20.92 4.35,42.31 6.35,63.83l93.15 18.55c-2.74,-30.95 -5.72,-61.93 -8.92,-92 -12.15,-114.05 -27.89,-216.46 -45.81,-259.03l-10.38 -24.64 -26.52 -3c-26.31,-2.97 -171.53,22.86 -254.92,37.69l-47.94 8.5c-19.38,3.24 -43.03,6.43 -69,9.44z"/>
   <path class="fil3 str1" d="M1082.72 3074.34l-273.16 548.58c-18.71,39.78 -14.03,86.55 11.7,121.64 28.08,37.41 72.51,53.79 116.96,44.44l565.02 -112.51c3.33,-33.29 6.93,-65.57 10.94,-95.58 2.93,-21.96 7.09,-48.92 12.08,-81.28 12.01,-78 28.69,-186.32 33.57,-235.25 -37,-15.31 -103.36,-37.66 -166.14,-58.82 -56.95,-19.18 -111.1,-37.44 -141.86,-50.08 -57.44,-23.62 -111.47,-51.45 -164.65,-78.85l-4.46 -2.29zm240.06 -229.88c109.31,45.7 234.47,92.26 301.86,113.89 12.97,-57.68 35.44,-136.15 60.92,-217.4 41.13,-131.19 90.33,-270.69 120.01,-341.31 4.45,-10.6 14,-31.49 24.23,-53.89 5.82,-12.76 11.94,-26.14 17.86,-39.41 -40.95,16.82 -86.55,37.85 -131.9,60.46 -88.16,43.97 -174.03,93.34 -221.82,129.07l-1.7 1.27c-50.99,38.14 -128.79,96.33 -199.88,156.17l-72.84 146.3c29.59,13.55 65.2,28.95 103.26,44.85zm735.59 -225.44c-50.79,139.81 -94.59,281.77 -129.91,420.68l222.77 36.71c8.04,1.16 16.18,2.3 24.4,3.41l217.69 -738.01 0 -159.12 -156.58 15.59c-65.96,134.34 -125.99,276.51 -178.37,420.74zm653.01 -276.34l217.14 736.16c56.42,-8.18 107.12,-17.64 151.33,-25.89 35.76,-6.66 67.49,-12.59 95.38,-16.58 -35.25,-138.16 -78.88,-279.27 -129.43,-418.04 -52.52,-144.14 -112.51,-285.67 -178.3,-418.56l-156.05 -19.44 -0.07 162.35zm676.11 304.03c31.83,94.37 72.47,214.88 92.97,311.57 67.49,-21.57 191.48,-67.68 300.1,-113.08 38.5,-16.09 74.53,-31.69 104.43,-45.41l-76.7 -154.06c-57.26,-47.83 -123.78,-96.96 -193.15,-143.42 -123.42,-82.65 -254.64,-155.98 -358.18,-197.9l112.01 286.71c11.76,35.62 14.87,44.77 18.52,55.59zm619.51 432.66c-120.21,60.69 -278.77,140.76 -448.66,183.06 -18.58,4.63 -15.43,17.16 -9.86,39.21 3.71,14.76 7.9,31.34 11.26,51.29 19.8,117.46 29.98,219.93 37.88,322.85l568.58 113.22c44.45,9.35 88.89,-7.03 116.96,-44.44 25.72,-35.09 30.41,-81.86 11.69,-121.64l-274.1 -550.49 -13.75 6.94zm-734.31 469.14c-8.85,-83.07 -19.12,-158.08 -29.8,-202.89 -47.04,6.68 -141.35,23.45 -201.57,34.16 -8.19,1.45 -15.68,2.79 -22.84,4.04l55.35 187.65 205.21 40.87c-2,-21.52 -4.12,-42.91 -6.35,-63.83zm-1242.08 22.96l55.97 -189.73c-54.3,-8.05 -105.38,-16.25 -148.12,-23.12 -31.32,-5.02 -57.88,-9.29 -76.74,-12.18 -13.06,56.07 -24.45,137.42 -33.57,224.25 -1.45,13.87 -2.85,27.87 -4.18,41.93l206.64 -41.15z"/>
   <path class="fil4" d="M2552.22 1803.1l-521.62 1768.37 423.38 644.03c49.12,68.79 147.37,68.78 196.48,0l423.38 -644.03 -521.62 -1768.37z"/>
  </g>
 </g>
</svg>
