<?xml version="1.0" encoding="UTF-8"?>
<!DOCTYPE svg PUBLIC "-//W3C//DTD SVG 1.1//EN" "http://www.w3.org/Graphics/SVG/1.1/DTD/svg11.dtd">
<!-- Creator: CorelDRAW 2020 (64-Bit) -->
<svg xmlns="http://www.w3.org/2000/svg" xml:space="preserve" width="180mm" height="50mm" version="1.1" style="shape-rendering:geometricPrecision; text-rendering:geometricPrecision; image-rendering:optimizeQuality; fill-rule:evenodd; clip-rule:evenodd"
viewBox="0 0 18000 5000"
 xmlns:xlink="http://www.w3.org/1999/xlink"
 xmlns:xodm="http://www.corel.com/coreldraw/odm/2003">
 <defs>
  <style type="text/css">
   <![CDATA[
    .str1 {stroke:red;stroke-width:20;stroke-miterlimit:22.9256}
    .str0 {stroke:white;stroke-width:20;stroke-miterlimit:22.9256}
    .fil0 {fill:#0095FE}
    .fil3 {fill:red}
    .fil1 {fill:white}
    .fil5 {fill:#666666;fill-rule:nonzero}
    .fil6 {fill:gray;fill-rule:nonzero}
    .fil2 {fill:red;fill-rule:nonzero}
    .fil4 {fill:white;fill-rule:nonzero}
   ]]>
  </style>
 </defs>
 <g id="Слой_x0020_1">
  <metadata id="CorelCorpID_0Corel-Layer"/>
  <g id="_2389579400128">
   <g>
    <path class="fil0" d="M3621.43 3994.08l848.21 0c-3.97,-66.85 -16.24,-149.35 -33.13,-231.49 -21.08,-102.52 -49.21,-203.46 -77.34,-271.83 -25.17,-61.19 -79.33,-188.87 -133.76,-292.87 -24.95,-47.66 -49.56,-89.89 -70.53,-116.98 -30.49,12.41 -69.85,32 -115.43,55l281.8 565.94c19.24,40.89 14.43,88.97 -12.02,125.05 -28.86,38.46 -74.55,55.3 -120.24,45.69l-584.54 -116.4c2.97,38.58 5.62,77.23 8.33,116.71 2.64,38.62 5.35,78.11 8.65,121.18zm-555.46 -345.13l-288.59 438.99c0,0 618.81,0 618.81,0 -3.81,-91.93 -19.39,-347.82 -32.67,-472.49 -12.49,-117.24 -28.67,-222.52 -47.1,-266.29l-10.66 -25.33 -27.27 -3.09c-27.04,-3.05 -176.33,23.51 -262.07,38.75l-49.28 8.73c-39.43,6.6 -96.1,13.01 -154.32,18.08 -62.72,5.48 -124.66,9.26 -167.31,10.02l-46.19 0.83 0 469.74c31.43,0.72 62.76,1.72 93.86,3.2l0 -381.77c39.46,-1.75 84.24,-4.74 127.71,-8.52 59.17,-5.16 118.29,-11.93 161.64,-19.19 15.93,-2.66 31.15,-5.37 50.01,-8.73 61.9,-11.01 158.87,-28.25 207.22,-35.13 105.04,440.36 44.38,275.65 -173.79,232.2zm-800.4 438.99l-272.1 -438.99 -152.13 -14.06c9.37,-89.26 -34.93,-159.64 -21.5,-217.28 19.38,2.97 46.69,7.35 78.88,12.52 126.62,20.34 324.3,52.1 467.63,58.52l0 380.07c31.13,-1.2 62.42,-2.04 93.86,-2.51l0 -469.84 -46.93 -0.05c-136.17,-0.14 -361.36,-36.32 -499.89,-58.58 -68.65,-11.02 -117.3,-18.84 -131.87,-17.7l-31.21 2.46 -9.66 29.99c-19.78,61.34 -36.23,169.97 -48.44,286.14 -11.88,113.23 -27.31,358.55 -30.54,449.31 0,0 147.74,0 147.74,0l456.16 0zm-1770.53 0l-0.01 -46.93c-0.04,-155.99 41.98,-358.53 107.96,-551.39 65.17,-190.51 154.33,-373.37 250.1,-494.63l21.88 -27.7 32.55 13.41c53.96,22.23 106.07,49.08 158.92,76.31 53.32,27.45 107.46,55.35 161.95,77.76 28.65,11.77 82.92,30.07 139.97,49.29 87.41,29.44 181.2,61.03 212.81,79.82l20.25 12.04 2.48 23.52c3.39,32.45 -20.24,185.95 -36.21,289.58 -6.14,39.93 -11.2,72.78 -12.4,81.73 -9.75,72.93 -17.81,170.76 -25.26,261.19 -1.79,21.79 -10.9,128.82 -13.3,156 0,0 -904.31,0 -1021.69,0zm3126.39 -93.86l848.21 0c-3.97,-66.85 -16.24,-149.35 -33.13,-231.49 -21.08,-102.52 -49.21,-203.46 -77.34,-271.83 -25.17,-61.19 -79.33,-188.87 -133.76,-292.87 -24.95,-47.66 -49.56,-89.89 -70.53,-116.98 -33.6,13.67 -77.97,36.07 -129.56,62.13 -123.58,62.4 -286.6,144.71 -461.25,188.2 -19.11,4.76 -15.86,17.64 -10.14,40.32 3.82,15.17 8.12,32.21 11.58,52.71 27.78,164.8 37.13,300.88 47.27,448.63 2.64,38.62 5.35,78.11 8.65,121.18zm896.33 93.86c46.93,0 -986.17,0 -986.17,0 -3.36,-43.73 -9.34,-165.67 -12.3,-208.82 -9.98,-145.42 -19.18,-279.37 -46.17,-439.45 -2.68,-15.97 -6.62,-31.53 -10.11,-45.38 -20.36,-80.67 -31.89,-126.44 78.69,-153.97 164.23,-40.89 321.93,-120.51 441.46,-180.87 71.32,-36.02 129.72,-65.51 172.05,-78.12l25.51 -7.6 19.58 18.05c32.66,30.09 70.9,92.04 107.95,162.85 56.5,107.95 111.8,238.26 137.43,300.56 30.3,73.66 60.29,180.79 82.47,288.71 21.53,104.63 35.91,211.12 36.36,289.72l0.18 0.19 0 54.13 -46.93 0zm-2312.38 -1850.71c-67.81,138.11 -129.52,284.26 -183.37,432.55 -52.22,143.74 -97.25,289.67 -133.56,432.48l229.02 37.73c48.93,7.09 101.2,13.15 154.4,17.32 31.38,2.45 63.04,4.24 94.48,5.15l0 -941.27 -160.97 16.04zm-271.36 400.66c58.43,-160.87 125.41,-318.45 198.84,-465.52l11.52 -23.09 315.83 -31.47 0 1139.2 -46.93 0c-48.38,0 -98.66,-2.28 -148.73,-6.21 -54.33,-4.26 -108.69,-10.59 -160.28,-18.08 -108.15,-21 -221.37,-36.52 -330.69,-54.52l11.82 -48.99c39.09,-161.92 89.37,-328.21 148.62,-491.32zm758.99 524.61c152.14,-4.27 281.13,-28.33 379.14,-46.61 36.76,-6.86 69.39,-12.95 98.06,-17.05 -36.25,-142.04 -81.1,-287.11 -133.07,-429.78 -53.99,-148.19 -115.66,-293.68 -183.3,-430.3l-160.43 -19.99 -0.4 943.73zm396.01 45.41c-112.12,20.91 -263.25,49.1 -442.77,49.1l-46.77 0 0.48 -1134.44 80.04 0 234.99 29.29 11.27 22.37c73.64,146.25 140.61,303.02 198.87,462.94 59.43,163.14 109.83,329.78 149,492.04l13.64 56.52 -58.19 1.22c-31.83,0.66 -80.29,9.7 -140.56,20.96zm394.98 -189.35c69.39,-22.18 196.86,-69.58 308.53,-116.27 68.56,-28.66 129.54,-55.78 163.26,-74.02 -68.37,-83.38 -195.34,-186.08 -333.32,-278.48 -126.89,-84.98 -261.79,-160.35 -368.24,-203.46l115.15 294.76c12.1,36.63 15.29,46.02 19.04,57.16 32.73,97.01 74.51,220.9 95.58,320.31zm344.46 -29.74c-150.12,62.74 -332.21,127.52 -373.77,134.56l-47.38 8.03 -6.68 -47.81c-13.52,-96.55 -63.38,-244.35 -100.93,-355.66l-19.37 -57.4 -182.31 -466.66 87.29 21.12c122.17,29.55 314.35,129.95 489.21,247.07 167.2,111.97 320.76,240.71 385.47,339.61l17.47 26.7 -18.57 26.09c-20.85,29.31 -118.61,77.6 -230.43,124.35zm-2724.04 -160.28c33.64,18.04 93.74,44.74 161.35,73 112.38,46.98 241.05,94.85 310.33,117.09 13.34,-59.3 36.43,-139.97 62.63,-223.51 42.3,-134.87 92.87,-278.28 123.38,-350.88 4.57,-10.9 14.39,-32.38 24.91,-55.41 5.99,-13.11 12.28,-26.87 18.37,-40.51 -42.1,17.29 -88.99,38.91 -135.6,62.15 -90.65,45.2 -178.92,95.95 -228.06,132.7l-1.75 1.3c-88.54,66.24 -255.75,191.29 -335.56,284.07zm125.41 159.52c-111.34,-46.54 -208.48,-94.49 -229.18,-123.59l-18.57 -26.09 17.46 -26.7c70.35,-107.51 279.83,-264.18 384.37,-342.36l1.74 -1.3c53.45,-39.98 147.18,-94.03 242.35,-141.5 89.97,-44.86 182.5,-84.41 245.12,-101.34l75.87 -20.51 -18.32 76.6c-9.09,38.05 -35.81,96.53 -58.61,146.43 -8,17.52 -15.41,33.72 -23.44,52.83 -29.86,71.05 -79.23,211.03 -120.44,342.45 -33.84,107.86 -62.09,209.28 -69.27,260.62l-6.71 47.81 -47.37 -8.03c-40.34,-6.83 -224.08,-72.25 -375,-135.32zm2289.74 1299.23l2.57 -44.04 1023.57 0 0 47.16c0,138.77 -36.62,322.84 -93.66,501.32 -223.53,-216.08 -547.1,-391.79 -932.48,-504.44zm-2998.9 169.6c-7.66,-50.83 -13.1,-100.89 -13.1,-135.92l0 -77.72 1023.41 0 2.49 40.05c-384.73,110.57 -708.67,283.83 -934.39,497.37 -18.35,-57.44 -34.02,-112.5 -46.71,-161.9 -10.26,-39.89 -22.74,-102.41 -31.7,-161.88zm2831.71 -213.64l32.34 0 -0.37 7.75c-10.63,-2.61 -21.25,-5.23 -31.97,-7.75zm-1681.69 3.99l0 -3.99 16.44 0c-5.51,1.29 -10.95,2.67 -16.44,3.99z"/>
   </g>
   <path class="fil1 str0" d="M4256.93 3733.88l-1683.36 -3380.68 0.22 -0.12c-3.39,-6.72 -9.27,-11.91 -16.34,-15.44 -7.77,-3.89 -17.45,-5.85 -27.74,-5.85 -10.31,0 -19.97,1.95 -27.74,5.84 -7.08,3.53 -12.96,8.73 -16.36,15.45l0.22 0.12 -1683.32 3380.69c-3.61,8.13 -4.92,16.91 -4.11,25.41 0.85,8.87 4.12,17.6 9.67,25.16 5.76,7.64 13.02,13.04 20.89,16.03 8.21,3.12 17.46,3.81 26.84,1.84l0.85 -0.28 1092.74 -217.61 580.33 -926.43 580.31 926.43 1092.73 217.61 0.84 0.28c9.38,1.97 18.63,1.28 26.84,-1.84 7.88,-2.99 15.14,-8.4 20.97,-15.97 5.47,-7.63 8.75,-16.37 9.6,-25.21 0.82,-8.51 -0.5,-17.29 -4.08,-25.43z"/>
   <path class="fil2" d="M4256.93 3733.88l-1683.36 -3380.68 0.22 -0.12c-3.39,-6.71 -9.26,-11.91 -16.34,-15.44 -7.77,-3.89 -17.45,-5.85 -27.74,-5.85 -10.31,0 -19.97,1.95 -27.74,5.84 -7.08,3.53 -12.96,8.72 -16.36,15.45l0.22 0.12 -1683.32 3380.69c-3.61,8.13 -4.92,16.91 -4.11,25.41 0.85,8.87 4.12,17.6 9.67,25.16 5.76,7.64 13.02,13.04 20.89,16.03 8.21,3.12 17.46,3.81 26.84,1.84l0.85 -0.28 1092.74 -217.61 580.33 -926.43 580.31 926.43 1092.72 217.61 0.85 0.28c9.38,1.97 18.63,1.28 26.84,-1.84 7.88,-2.99 15.14,-8.4 20.98,-15.97 5.46,-7.63 8.74,-16.37 9.59,-25.21 0.82,-8.51 -0.5,-17.29 -4.08,-25.43zm-1554.65 -3444.76l1683.33 3380.69 0.56 1.41c15.18,32.25 20.88,67.38 17.6,101.57 -3.32,34.5 -15.71,67.98 -36.66,96.55l-0.56 0.56c-22.76,30.37 -52.41,52.35 -85.53,64.92 -33.15,12.6 -69.54,15.65 -105.78,8.2l-0.02 0.11 -1153.32 -229.66 -492.19 -785.77 -492.2 785.77 -1153.33 229.66 -0.02 -0.11c-36.24,7.45 -72.63,4.4 -105.77,-8.2 -33.12,-12.58 -62.77,-34.56 -85.54,-64.92l-0.56 -0.56c-20.95,-28.58 -33.34,-62.06 -36.65,-96.56 -3.28,-34.18 2.42,-69.31 17.61,-101.56l0.56 -1.41 1683.32 -3380.69 0.27 0c18.16,-36.3 46.89,-62.86 80.49,-79.65 28.76,-14.38 60.62,-21.58 91.82,-21.58 31.21,0 63.06,7.21 91.82,21.59 33.6,16.79 62.31,43.34 80.47,79.64l0.28 0z"/>
   <path class="fil2" d="M4039.45 3135.91l-41.73 -83.82 -14.56 7.36c-119.54,60.35 -277.23,139.98 -441.46,180.88 -110.58,27.52 -99.05,73.29 -78.68,153.96 3.48,13.85 7.41,29.41 10.1,45.38 18.06,107.11 28.16,202.52 35.84,297.5l95.5 19.02c-8.12,-105.81 -18.6,-211.15 -38.95,-331.91 -3.45,-20.51 -7.77,-37.56 -11.58,-52.73 -5.72,-22.67 -8.96,-35.55 10.14,-40.31 174.66,-43.49 337.67,-125.81 461.25,-188.2l14.13 -7.13zm-98.28 -197.39l-41.28 -82.91c-30.75,14.11 -67.78,30.14 -107.36,46.69 -111.67,46.68 -239.14,94.08 -308.52,116.26 -21.09,-99.41 -62.86,-223.3 -95.59,-320.32 -3.75,-11.13 -6.94,-20.53 -19.04,-57.15l-115.14 -294.76c106.44,43.1 241.34,118.48 368.23,203.46 71.31,47.76 139.7,98.27 198.56,147.44l-94.27 -189.3c-17.2,-12.11 -34.64,-24.08 -52.24,-35.86 -174.86,-117.13 -367.04,-217.52 -489.2,-247.08l-87.3 -21.11 182.31 466.67 19.37 57.39c37.54,111.3 87.41,259.11 100.93,355.66l6.68 47.82 47.38 -8.04c41.55,-7.04 223.65,-71.82 373.77,-134.57 40.39,-16.88 78.96,-33.97 112.71,-50.29zm-2608.46 -430.75l-98.22 197.27c73.09,-61.53 153.07,-121.36 205.49,-160.56l1.75 -1.31c49.13,-36.74 137.41,-87.5 228.05,-132.7 46.62,-23.24 93.5,-44.86 135.6,-62.15 -6.09,13.64 -12.37,27.39 -18.36,40.52 -10.52,23.02 -20.33,44.5 -24.91,55.4 -30.51,72.6 -81.09,216.01 -123.38,350.88 -26.19,83.54 -49.29,164.21 -62.63,223.51 -69.28,-22.24 -197.95,-70.11 -310.33,-117.09 -39.13,-16.35 -75.74,-32.18 -106.16,-46.11l-41.29 82.91c33.43,16.13 71.56,33.02 111.52,49.72 150.91,63.08 334.65,128.49 374.99,135.32l47.37 8.04 6.7 -47.82c7.19,-51.35 35.44,-152.76 69.28,-260.62 41.21,-131.42 90.59,-271.4 120.44,-342.45 8.03,-19.11 15.44,-35.31 23.44,-52.83 22.8,-49.9 49.52,-108.38 58.61,-146.43l18.32 -76.6 -75.88 20.51c-62.61,16.93 -155.14,56.48 -245.11,101.34 -95.18,47.47 -188.89,101.52 -242.34,141.49l-1.75 1.31c-15.12,11.3 -32.43,24.25 -51.2,38.45zm-272.01 546.28l-41.72 83.82 4.58 2.36c54.67,28.16 110.21,56.77 169.27,81.05 31.63,13.01 87.3,31.77 145.84,51.49 64.54,21.75 132.77,44.74 170.81,60.47 -5.03,50.3 -22.17,161.67 -34.52,241.86 -5.13,33.26 -9.4,60.99 -12.41,83.55 -4.13,30.86 -7.83,64.05 -11.26,98.27l96.12 -19.14c2.51,-23.85 5.13,-46.43 7.89,-67.02 1.19,-8.96 6.25,-41.81 12.4,-81.74 15.96,-103.63 39.59,-257.13 36.2,-289.58l-2.48 -23.52 -20.26 -12.04c-31.6,-18.79 -125.4,-50.38 -212.8,-79.83 -57.05,-19.21 -111.32,-37.51 -139.98,-49.28 -54.48,-22.42 -108.62,-50.31 -161.94,-77.75l-5.74 -2.97zm624.57 656.28l95.76 -19.07c1.36,-14.46 2.8,-28.85 4.3,-43.11 9.37,-89.27 21.08,-172.9 34.51,-230.54 19.39,2.97 46.69,7.35 78.88,12.52 59.25,9.52 134.05,21.53 211.57,32.28l54.51 -87.01c-90.83,-11.86 -182,-26.51 -251.41,-37.66 -68.65,-11.02 -117.3,-18.84 -131.87,-17.7l-31.21 2.46 -9.66 29.99c-19.78,61.34 -36.23,169.97 -48.44,286.13 -2.48,23.68 -4.8,47.71 -6.94,71.71zm558.65 -461.24l56.23 -89.76c-9.45,-0.61 -18.88,-1.29 -28.29,-2.02 -53.19,-4.18 -105.47,-10.22 -154.39,-17.31l-229.02 -37.74c36.31,-142.81 81.33,-288.75 133.56,-432.48 53.85,-148.29 115.56,-294.44 183.37,-432.55l160.97 -16.04 0 832.45 93.86 -149.85 0 -785.98 -315.83 31.47 -11.52 23.09c-73.43,147.08 -140.41,304.65 -198.85,465.52 -59.24,163.11 -109.52,329.4 -148.61,491.31l-11.83 49c109.33,18 222.55,33.51 330.69,54.52 45.07,6.54 92.25,12.19 139.66,16.37zm355.71 -344.61l93.42 149.16 0.36 -834.87 160.43 19.98c67.64,136.63 129.31,282.13 183.3,430.31 51.97,142.67 96.82,287.74 133.07,429.78 -28.67,4.1 -61.3,10.19 -98.06,17.04 -83.44,15.57 -189.34,35.32 -312.86,43.48l56.12 89.61c106.48,-9.89 198.75,-27.1 273.61,-41.06 60.27,-11.25 108.73,-20.29 140.56,-20.96l58.19 -1.22 -13.64 -56.53c-39.17,-162.24 -89.57,-328.89 -149,-492.03 -58.26,-159.92 -125.23,-316.69 -198.87,-462.94l-11.27 -22.37 -234.99 -29.3 -80.05 0 -0.32 781.92zm296.57 473.45l54.8 87.5c11.19,-1.57 21.76,-3.18 31.53,-4.82 15.93,-2.66 31.15,-5.37 50.01,-8.73 61.91,-11.01 158.87,-28.25 207.23,-35.12 10.98,46.07 21.54,123.18 30.63,208.59 2.3,21.51 4.47,43.5 6.54,65.61l95.76 19.08c-2.82,-31.82 -5.88,-63.67 -9.18,-94.59 -12.49,-117.24 -28.67,-222.53 -47.09,-266.29l-10.68 -25.33 -27.26 -3.09c-27.04,-3.05 -176.34,23.51 -262.07,38.75l-49.29 8.74c-19.92,3.33 -44.24,6.61 -70.93,9.7z"/>
   <path class="fil3 str1" d="M1018.98 3137.87l-280.83 563.98c-19.24,40.9 -14.43,88.97 12.02,125.05 28.87,38.46 74.55,55.3 120.25,45.69l580.87 -115.67c3.43,-34.22 7.13,-67.41 11.26,-98.27 3.01,-22.56 7.28,-50.29 12.41,-83.55 12.35,-80.19 29.49,-191.56 34.52,-241.86 -38.04,-15.73 -106.27,-38.72 -170.81,-60.47 -58.54,-19.72 -114.21,-38.48 -145.84,-51.49 -59.06,-24.28 -114.6,-52.89 -169.27,-81.05l-4.58 -2.36zm246.79 -236.33c112.38,46.98 241.05,94.85 310.33,117.09 13.34,-59.3 36.44,-139.97 62.63,-223.51 42.29,-134.87 92.87,-278.28 123.38,-350.88 4.58,-10.9 14.39,-32.38 24.91,-55.4 5.99,-13.13 12.27,-26.88 18.36,-40.52 -42.1,17.29 -88.98,38.91 -135.6,62.15 -90.64,45.2 -178.92,95.96 -228.05,132.7l-1.75 1.31c-52.42,39.2 -132.4,99.03 -205.48,160.55l-74.89 150.4c30.42,13.93 67.03,29.76 106.16,46.11zm756.24 -231.76c-52.23,143.73 -97.25,289.67 -133.56,432.48l229.02 37.74c8.27,1.19 16.64,2.36 25.09,3.5l223.79 -758.71 0 -163.6 -160.97 16.04c-67.81,138.11 -129.52,284.26 -183.37,432.55zm671.33 -284.11l223.24 756.83c58,-8.41 110.12,-18.14 155.57,-26.62 36.76,-6.85 69.39,-12.94 98.06,-17.04 -36.25,-142.04 -81.1,-287.11 -133.07,-429.78 -53.99,-148.18 -115.66,-293.68 -183.3,-430.31l-160.43 -19.98 -0.07 166.9zm695.08 312.57c32.73,97.02 74.5,220.91 95.59,320.32 69.38,-22.18 196.85,-69.58 308.52,-116.26 39.58,-16.55 76.61,-32.58 107.36,-46.69l-78.86 -158.38c-58.86,-49.17 -127.25,-99.68 -198.56,-147.44 -126.89,-84.98 -261.79,-160.36 -368.23,-203.46l115.14 294.76c12.1,36.62 15.29,46.02 19.04,57.15zm636.9 444.8c-123.58,62.39 -286.59,144.71 -461.25,188.2 -19.1,4.76 -15.86,17.64 -10.14,40.31 3.81,15.17 8.13,32.22 11.58,52.73 20.35,120.76 30.83,226.1 38.94,331.91l584.54 116.4c45.69,9.61 91.38,-7.23 120.24,-45.69 26.44,-36.08 31.26,-84.16 12.02,-125.05l-281.8 -565.94 -14.13 7.13zm-754.92 482.31c-9.09,-85.41 -19.65,-162.52 -30.63,-208.59 -48.36,6.87 -145.32,24.11 -207.23,35.12 -8.42,1.5 -16.12,2.87 -23.48,4.16l56.9 192.92 210.98 42c-2.07,-22.11 -4.24,-44.1 -6.54,-65.61zm-1276.94 23.61l57.54 -195.06c-55.82,-8.28 -108.33,-16.71 -152.28,-23.77 -32.19,-5.17 -59.49,-9.55 -78.88,-12.52 -13.43,57.64 -25.14,141.27 -34.51,230.54 -1.5,14.26 -2.94,28.65 -4.3,43.11l212.43 -42.3z"/>
   <path class="fil4" d="M2529.71 1830.95l-536.25 1818 435.26 662.1c50.5,70.72 151.5,70.72 201.99,0l435.26 -662.1 -536.26 -1818z"/>
  </g>
  <path class="fil5" d="M7418.69 958.93l-164.61 -19.82 0 -94.49 475.53 0 181.37 655.38 42.68 178.32 36.57 -178.32 179.85 -655.38 470.96 0 0 94.49 -166.13 19.82 121.93 909.9 123.46 16.77 0 91.45 -486.21 0 0 -91.45 134.13 -15.24 -67.06 -667.57 -28.96 -278.91 -56.4 234.71 -220.99 771.21 -161.56 0 -225.57 -731.58 -77.73 -274.34 -22.86 278.91 -57.92 667.57 153.94 15.24 0 91.45 -423.71 0 0 -91.45 128.03 -15.24 111.26 -911.43zm1810.66 170.7l0 89.92 -117.35 19.82 0 460.28 85.35 -112.78 295.68 -315.49 0 -32.01 -102.11 -19.82 0 -89.92 422.18 0 0 89.92 -103.65 19.82 0 632.51 108.22 13.72 0 91.45 -438.95 0 0 -91.45 114.31 -13.72 0 -467.9 -88.4 126.49 -292.63 309.41 0 35.05 100.59 10.67 0 91.45 -422.19 0 0 -91.45 106.7 -13.72 0 -632.51 -103.65 -19.82 0 -89.92 435.9 0zm1562.23 396.27c0,85.36 -17.52,163.6 -52.58,234.72 -35.06,71.13 -86.36,127.77 -153.93,169.94 -67.58,42.17 -148.1,63.26 -241.58,63.26 -20.33,0 -41.41,-1.79 -63.25,-5.34 -21.85,-3.56 -39.38,-7.88 -52.58,-12.95l4.57 126.49 0 138.71 141.74 18.28 0 86.88 -452.66 0 0 -86.88 99.07 -18.28 0 -966.31 -99.07 -27.43 0 -105.16 251.48 -32.01 3.05 0 38.1 30.48 0 85.35c25.4,-31.5 59.94,-58.93 103.64,-82.3 43.69,-23.37 91.45,-35.06 143.27,-35.06 96.52,0 175.78,34.3 237.76,102.88 61.98,68.59 92.97,173.5 92.97,314.73zm-409.98 -291.1c-30.49,0 -59.45,6.61 -86.88,19.81 -27.43,13.21 -48.27,27.95 -62.49,44.2l0 565.45c7.11,10.16 21.59,18.8 43.44,25.91 21.84,7.11 45.97,10.67 72.39,10.67 66.05,0 118.63,-28.71 157.75,-86.11 39.11,-57.41 58.68,-147.59 58.68,-270.54 0,-103.63 -16.77,-181.11 -50.29,-232.43 -33.54,-51.31 -77.74,-76.96 -132.6,-76.96zm534.96 320.07c0,-95.52 19.05,-176.81 57.15,-243.87 38.1,-67.06 89.16,-117.6 153.18,-151.65 64.01,-34.04 133.61,-51.06 208.81,-51.06 128.02,0 226.83,39.38 296.44,118.12 69.6,78.75 104.4,185.69 104.4,320.83 0,96.54 -19.06,178.58 -57.16,246.15 -38.1,67.57 -88.91,117.86 -152.41,150.89 -63.51,33.02 -133.36,49.54 -209.56,49.54 -127.02,0 -225.58,-39.38 -295.69,-118.13 -70.11,-78.75 -105.16,-185.69 -105.16,-320.82zm413.03 339.87c114.83,0 172.23,-110.75 172.23,-332.26 0,-115.83 -13.71,-203.97 -41.15,-264.43 -27.43,-60.46 -72.14,-90.69 -134.12,-90.69 -117.87,0 -176.8,110.76 -176.8,332.26 0,115.84 14.48,203.98 43.44,264.44 28.95,60.46 74.42,90.68 136.4,90.68zm836.75 -768.16c73.16,-4.06 130.05,-6.09 170.7,-6.09 136.16,0 230.14,16.77 281.96,50.3 51.83,33.52 77.73,81.79 77.73,144.78 0,48.78 -13.72,89.93 -41.15,123.46 -27.44,33.53 -68.07,58.43 -121.93,74.68 77.22,7.12 135.65,29.21 175.28,66.3 39.63,37.09 59.44,82.06 59.44,134.89 0,87.38 -33.28,154.44 -99.83,201.19 -66.55,46.74 -181.12,70.1 -343.7,70.1 -33.52,0 -63.5,-0.5 -89.91,-1.52 -26.43,-1.02 -48.27,-2.03 -65.55,-3.05 -43.69,-3.05 -82.3,-4.57 -115.83,-4.57l-175.27 0 0 -91.45 102.11 -16.77 0 -629.46 -102.11 -19.82 0 -89.92 185.94 0 102.12 -3.05zm144.79 356.65c59.95,0 103.39,-14.22 130.31,-42.67 26.93,-28.46 40.4,-64.53 40.4,-108.22 0,-38.61 -12.45,-67.57 -37.35,-86.88 -24.89,-19.3 -68.84,-28.95 -131.83,-28.95 -55.89,0 -96.02,0.5 -120.41,1.52l0 265.2 118.88 0zm-118.88 394.75c8.12,3.05 24.64,5.59 49.54,7.62 24.88,2.03 47.49,3.05 67.82,3.05 78.23,0 133.61,-12.96 166.12,-38.86 32.52,-25.92 48.78,-65.29 48.78,-118.13 0,-52.84 -15.75,-92.2 -47.25,-118.12 -31.5,-25.91 -81.79,-38.86 -150.88,-38.86l-134.13 0 0 303.3zm676.71 -138.7c0,-92.46 46.49,-162.06 139.46,-208.81 92.98,-46.73 213.13,-70.61 360.46,-71.62l0 -35.06c0,-41.66 -4.32,-74.18 -12.96,-97.54 -8.63,-23.38 -24.38,-40.9 -47.25,-52.59 -22.86,-11.68 -56.13,-17.53 -99.82,-17.53 -49.8,0 -94.5,6.36 -134.13,19.06 -39.62,12.7 -80.78,29.21 -123.46,49.53l-47.24 -97.54c15.24,-13.21 40.9,-28.96 76.96,-47.25 36.08,-18.29 79,-34.29 128.8,-48.01 49.78,-13.72 101.09,-20.58 153.94,-20.58 78.23,0 139.45,10.17 183.65,30.49 44.2,20.31 75.96,52.83 95.26,97.54 19.3,44.71 28.96,104.65 28.96,179.85l0 466.38 82.3 0 0 85.35c-20.32,5.08 -49.28,10.17 -86.88,15.24 -37.59,5.08 -70.62,7.63 -99.07,7.63 -34.54,0 -57.66,-5.09 -69.34,-15.25 -11.69,-10.16 -17.53,-30.99 -17.53,-62.48l0 -41.16c-27.44,30.48 -63,57.91 -106.69,82.31 -43.69,24.38 -92.97,36.58 -147.84,36.58 -46.74,0 -89.67,-9.91 -128.79,-29.72 -39.12,-19.82 -70.37,-48.78 -93.73,-86.88 -23.37,-38.11 -35.06,-84.09 -35.06,-137.94zm355.13 128.03c21.34,0 45.72,-6.35 73.15,-19.05 27.44,-12.7 51.32,-28.19 71.64,-46.48l0 -249.97c-91.45,0 -159.78,15.5 -205,46.49 -45.21,30.99 -67.82,70.88 -67.82,119.64 0,48.78 11.43,85.86 34.29,111.27 22.86,25.4 54.1,38.1 93.74,38.1zm931.23 -225.57c-18.29,13.21 -34.04,33.78 -47.24,61.73 -13.21,27.94 -27.95,66.3 -44.2,115.06 -18.29,53.86 -34.3,93.74 -48.01,119.65 -13.72,25.92 -30.24,38.87 -49.54,38.87l-251.48 0 0 -91.45 60.96 -15.24c25.4,-7.12 46.75,-22.1 64.02,-44.97 17.27,-22.86 36.07,-54.6 56.39,-95.25 14.23,-27.44 26.42,-49.28 36.58,-65.54 10.16,-16.25 21.34,-29.46 33.53,-39.63 -62.99,-17.27 -110.25,-47.24 -141.74,-89.92 -31.5,-42.68 -47.25,-96.02 -47.25,-160.04 0,-83.31 33.27,-146.82 99.83,-190.51 66.55,-43.69 164.86,-65.53 294.92,-65.53 45.73,0 104.15,2.02 175.27,6.09 41.66,3.05 76.72,4.57 105.17,4.57l182.89 0 0 91.45 -103.64 18.29 0 630.99 109.74 15.24 0 91.45 -441.99 0 0 -91.45 118.88 -15.24 0 -228.62 -163.09 0zm163.09 -423.71c-33.54,-5.08 -73.67,-7.62 -120.41,-7.62 -56.91,0 -102.37,11.18 -136.41,33.53 -34.04,22.35 -51.06,61.48 -51.06,117.36 0,56.9 14.98,102.87 44.97,137.93 29.97,35.06 77.98,52.58 144.03,52.58 66.03,0 105.67,-1.01 118.88,-3.05l0 -330.73z"/>
  <path class="fil6" d="M6097.94 2242.7l371.55 0 560.98 1644.08 140.85 24.29 0 145.7 -716.4 0 0 -145.7 182.14 -24.29 -94.71 -315.7 -628.98 0 -94.71 318.13 196.71 21.86 0 145.7 -619.26 0 -2.43 -145.7 145.71 -24.29 558.55 -1644.08zm167.56 410.41l-43.71 -189.42 -46.14 191.85 -216.14 745.54 534.27 0 -228.28 -747.97zm1447.37 48.57c116.57,-6.48 207.23,-9.71 271.99,-9.71 216.94,0 366.7,26.71 449.27,80.14 82.57,53.43 123.85,130.33 123.85,230.7 0,77.72 -21.85,143.28 -65.57,196.71 -43.71,53.43 -108.47,93.09 -194.27,119 123.05,11.34 216.13,46.54 279.27,105.63 63.14,59.1 94.71,130.73 94.71,214.93 0,139.22 -53.02,246.08 -159.05,320.55 -106.05,74.48 -288.59,111.71 -547.64,111.71 -53.42,0 -101.19,-0.8 -143.28,-2.42 -42.08,-1.63 -76.9,-3.24 -104.42,-4.86 -69.62,-4.86 -131.14,-7.29 -184.56,-7.29l-279.28 0 0 -145.7 162.71 -26.72 0 -1002.96 -162.71 -31.57 0 -143.28 296.28 0 162.7 -4.86zm230.71 568.27c95.51,0 164.73,-22.66 207.64,-68 42.89,-45.34 64.35,-102.8 64.35,-172.42 0,-61.52 -19.83,-107.66 -59.49,-138.43 -39.68,-30.76 -109.7,-46.14 -210.07,-46.14 -89.05,0 -153,0.81 -191.85,2.43l0 422.56 189.42 0zm-189.42 628.97c12.94,4.86 39.25,8.91 78.93,12.15 39.66,3.23 75.69,4.85 108.06,4.85 124.66,0 212.9,-20.65 264.7,-61.93 51.81,-41.29 77.72,-104.01 77.72,-188.2 0,-84.19 -25.09,-146.93 -75.29,-188.22 -50.19,-41.28 -130.33,-61.91 -240.42,-61.91l-213.7 0 0 483.26zm1799.5 -1192.38l0 143.28 -186.99 31.57 0 733.4 135.99 -179.71 471.13 -502.69 0 -51 -162.71 -31.57 0 -143.28 672.69 0 0 143.28 -165.14 31.57 0 1007.82 172.42 21.86 0 145.7 -699.4 0 0 -145.7 182.14 -21.86 0 -745.54 -140.86 201.56 -466.26 492.98 0 55.86 160.28 17 0 145.7 -672.69 0 0 -145.7 169.99 -21.86 0 -1007.82 -165.14 -31.57 0 -143.28 694.55 0zm1119.53 971.39c0,-147.33 74.08,-258.22 222.21,-332.7 148.14,-74.48 339.57,-112.51 574.33,-114.14l0 -55.85c0,-66.38 -6.89,-118.2 -20.63,-155.43 -13.77,-37.23 -38.86,-65.16 -75.29,-83.79 -36.42,-18.6 -89.45,-27.92 -159.07,-27.92 -79.34,0 -150.57,10.12 -213.71,30.35 -63.14,20.25 -128.71,46.56 -196.7,78.94l-75.29 -155.43c24.29,-21.05 65.17,-46.14 122.65,-75.28 57.46,-29.14 125.86,-54.65 205.2,-76.51 79.33,-21.85 161.08,-32.77 245.27,-32.77 124.66,0 222.22,16.19 292.64,48.57 70.43,32.37 121.01,84.19 151.77,155.42 30.77,71.23 46.15,166.76 46.15,286.56l0 743.12 131.13 0 0 135.99c-32.37,8.09 -78.51,16.2 -138.42,24.28 -59.91,8.09 -112.51,12.15 -157.85,12.15 -55.05,0 -91.88,-8.09 -110.49,-24.29 -18.62,-16.19 -27.93,-49.37 -27.93,-99.57l0 -65.56c-43.72,48.57 -100.37,92.28 -170,131.13 -69.62,38.86 -148.13,58.29 -235.56,58.29 -74.48,0 -142.88,-15.78 -205.2,-47.37 -62.33,-31.57 -112.13,-77.71 -149.36,-138.42 -37.23,-60.71 -55.85,-133.97 -55.85,-219.77zm565.83 203.99c34,0 72.86,-10.11 116.57,-30.36 43.71,-20.23 81.76,-44.92 114.14,-74.06l0 -398.27c-145.71,0 -254.59,24.69 -326.62,74.06 -72.05,49.39 -108.08,112.93 -108.08,190.64 0,77.71 18.22,136.8 54.65,177.28 36.43,40.48 86.2,60.71 149.34,60.71zm2464.91 17c-6.48,90.66 -17,206.02 -31.57,346.07 -14.57,140.03 -26.72,236.77 -36.43,290.19l-184.56 0c-4.86,-53.42 -14.58,-141.65 -29.15,-264.7 -14.57,-123.05 -25.91,-194.28 -33.99,-213.71l-1308.95 0 0 -145.7 162.7 -24.29 0 -1007.82 -165.13 -29.14 0 -143.28 682.4 0 0 143.28 -172.42 29.14 0 1019.96 519.69 0 0 -1017.53 -169.99 -31.57 0 -143.28 670.26 0 0 143.28 -155.42 31.57 0 1017.53 252.56 0zm820.82 -1192.38l0 143.28 -186.99 31.57 0 733.4 135.99 -179.71 471.13 -502.69 0 -51 -162.71 -31.57 0 -143.28 672.69 0 0 143.28 -165.14 31.57 0 1007.82 172.43 21.86 0 145.7 -699.41 0 0 -145.7 182.14 -21.86 0 -745.54 -140.85 201.56 -466.27 492.98 0 55.86 160.28 17 0 145.7 -672.69 0 0 -145.7 169.99 -21.86 0 -1007.82 -165.13 -31.57 0 -143.28 694.54 0zm1794.65 815.97c-29.14,21.05 -54.23,53.83 -75.28,98.34 -21.06,44.54 -44.52,105.65 -70.43,183.36 -29.14,85.8 -54.63,149.34 -76.49,190.63 -21.85,41.28 -48.17,61.93 -78.93,61.93l-400.7 0 0 -145.7 97.14 -24.29c40.48,-11.34 74.48,-35.22 101.99,-71.65 27.52,-36.43 57.48,-87 89.86,-151.77 22.66,-43.71 42.08,-78.51 58.28,-104.42 16.2,-25.91 34,-46.95 53.43,-63.14 -100.37,-27.52 -175.66,-75.29 -225.85,-143.28 -50.2,-68 -75.28,-153 -75.28,-254.99 0,-132.77 53.02,-233.94 159.07,-303.56 106.03,-69.63 262.68,-104.43 469.9,-104.43 72.86,0 165.94,3.23 279.28,9.71 66.37,4.86 122.22,7.29 167.56,7.29l291.42 0 0 145.71 -165.14 29.14 0 1005.39 174.85 24.29 0 145.7 -704.26 0 0 -145.7 189.42 -24.29 0 -364.27 -259.84 0zm259.84 -675.12c-53.42,-8.09 -117.37,-12.14 -191.84,-12.14 -90.66,0 -163.11,17.8 -217.34,53.43 -54.25,35.62 -81.37,97.94 -81.37,186.99 0,90.66 23.89,163.91 71.65,219.77 47.75,55.85 124.26,83.79 229.48,83.79 105.23,0 168.37,-1.63 189.42,-4.86l0 -526.98z"/>
 </g>
</svg>
